<svg xmlns="http://www.w3.org/2000/svg" viewBox="0 0 1024 1024" role="img" aria-label="Ham radio">
<path fill="#157878" d="M507.757714 278.4256v-44.251429c0-15.740343-17.700571-27.5456-33.923657-27.5456-16.237714 0-35.898514 11.805257-35.898514 27.5456v44.251429h-39.350857v-44.251429c0-15.740343-19.163429-28.525714-34.9184-28.525714-16.237714 0-34.421029 12.785371-34.421029 28.525714v44.251429H271.213714v-115.068343h-19.675428V63.019886c0-15.740343-18.197943-28.525714-34.421029-28.525715-16.237714 0-35.401143 12.785371-35.401143 28.525715v100.337371h-20.187428v124.416h1.492114C118.754743 305.9712 87.771429 349.257143 87.771429 399.418514v187.860115c0 38.370743 18.695314 72.791771 47.2064 94.9248V903.021714c0 8.850286 0.994743 17.700571 2.954971 26.550857C150.235429 983.669029 199.416686 1024 257.930971 1024h201.142858c58.528914 0 107.710171-40.330971 119.998171-94.427429a115.653486 115.653486 0 0 0 2.954971-26.550857V682.203429c28.525714-22.133029 47.221029-56.554057 47.221029-94.9248V399.418514c0.482743-66.399086-54.096457-120.495543-121.475657-120.978285z m32.958172 276.8896H175.3088V391.548343h365.421714V555.300571z m383.122285-204.097829c0.482743 6.392686-1.974857 11.805257-6.890057 16.237715a19.690057 19.690057 0 0 1-14.262857 5.895314h-1.477486c-5.895314 0-10.825143-2.4576-15.242971-6.875429a19.690057 19.690057 0 0 1-5.909943-14.277485c-1.462857-39.8336-9.8304-77.706971-25.570743-113.605486A325.661257 325.661257 0 0 0 695.632457 74.327771a324.929829 324.929829 0 0 0-114.5856-30.968685 19.675429 19.675429 0 0 1-13.765486-6.890057c-4.432457-4.9152-6.392686-10.327771-5.909942-16.720458 0.497371-5.412571 2.4576-9.845029 6.875428-13.780114 4.929829-4.417829 10.3424-6.392686 16.735086-5.895314a369.473829 369.473829 0 0 1 129.828571 35.401143 372.970057 372.970057 0 0 1 107.227429 77.224228 362.627657 362.627657 0 0 1 72.777143 109.173029 351.685486 351.685486 0 0 1 29.008457 129.345828z m-258.194285-93.447314a102.985143 102.985143 0 0 1 27.0336 49.678629 17.846857 17.846857 0 0 1-0.482743 11.307885 19.017143 19.017143 0 0 1-5.909943 9.347658 27.735771 27.735771 0 0 1-9.8304 5.412571c-1.960229 0.482743-3.935086 0.482743-5.412571 0.482743-5.895314 0-10.825143-2.4576-15.242972-6.875429a21.767314 21.767314 0 0 1-5.412571-9.845028 67.028114 67.028114 0 0 0-16.237715-29.505829 69.895314 69.895314 0 0 0-29.4912-17.700571 18.388114 18.388114 0 0 1-9.845028-5.909943c-5.895314-5.895314-7.3728-12.785371-5.412572-20.655543 0.994743-3.920457 2.954971-6.875429 5.909943-9.8304a22.235429 22.235429 0 0 1 21.152915-5.412571 107.637029 107.637029 0 0 1 49.166628 29.505828z m117.525943-0.482743a226.625829 226.625829 0 0 1 20.1728 78.687086c0.482743 6.875429-1.477486 12.288-6.875429 17.217829-3.949714 3.437714-8.367543 5.412571-13.297371 5.895314h-1.960229c-5.909943 0-10.825143-2.4576-15.242971-6.875429-3.452343-3.949714-5.909943-8.367543-5.909943-13.282743-1.462857-22.6304-7.3728-43.768686-16.237715-64.438857a205.326629 205.326629 0 0 0-36.864-54.5792 204.053943 204.053943 0 0 0-53.613714-39.350857 196.022857 196.022857 0 0 0-64.424228-19.675428c-4.9152-0.482743-9.347657-2.940343-13.282743-6.392686a19.821714 19.821714 0 0 1-5.895315-17.700572c0.482743-4.9152 2.940343-9.347657 6.392686-12.785371 4.9152-4.9152 10.825143-6.392686 17.700572-5.895314 28.028343 3.437714 54.096457 11.307886 78.701714 23.595885 24.576 12.288 46.226286 28.525714 65.389714 48.201143 18.695314 20.655543 33.938286 42.788571 45.246172 67.3792z" p-id="5473">
</path>
</svg>
